<?xml version="1.0" encoding="UTF-8"?>
<svg width="150px" height="59px" viewBox="0 0 150 59" version="1.1" xmlns="http://www.w3.org/2000/svg" xmlns:xlink="http://www.w3.org/1999/xlink">
    <title>logo</title>
    <g id="logo" stroke="none" stroke-width="1" fill="none" fill-rule="evenodd">
        <g id="GOODLIFE-LOGO" transform="translate(0.000000, 1.000000)" fill-rule="nonzero">
            <path d="M24.9053512,34.3048266 C23.9362604,35.3261218 22.5235916,36.2489449 20.6645194,37.0732961 C18.8082726,37.8976473 16.460417,38.3084162 13.6209527,38.3084162 C9.59202125,38.3084162 6.3146296,36.8679117 3.78877776,33.9869027 C1.26292592,31.1058938 0,27.3611448 0,22.7526558 L0,21.65821 C0,16.8893524 1.24597389,13.0095561 3.73792168,10.0188212 C6.22986947,7.02808634 9.48183308,5.53412564 13.4966378,5.53412564 C15.8303667,5.53412564 17.9634966,5.93082707 19.8960276,6.72704341 C21.8285585,7.52325976 23.4361756,8.59801116 24.7188789,9.95411108 L24.7188789,16.3632307 L20.2944002,16.3632307 L19.4552749,12.0979869 C18.9099847,11.6028135 18.1895236,11.2061121 17.2938916,10.9050691 C16.3982596,10.6068397 15.372662,10.4549115 14.2114483,10.4549115 C11.6036616,10.4549115 9.57506922,11.4818336 8.12849636,13.5413049 C6.68192349,15.5979626 5.95863706,18.2876546 5.95863706,21.6131943 L5.95863706,22.7498423 C5.95863706,25.988164 6.6677968,28.573757 8.08894163,30.5038079 C9.51008646,32.4366723 11.5556309,33.4016978 14.234051,33.4016978 C15.4348195,33.4016978 16.4095609,33.2919719 17.1526247,33.0753335 C17.8956885,32.8558816 18.4805334,32.602668 18.9043341,32.3100655 L18.9043341,26.9053602 L14.6437249,26.556488 L14.6437249,22.0746059 L24.9053512,22.0746059 L24.9053512,34.3048266 L24.9053512,34.3048266 Z" id="Path" fill="#683E97"></path>
            <path d="M27.2023507,25.7940335 C27.2023507,22.2659229 28.1262361,19.37366 29.9768322,17.1200582 C31.8274284,14.8664565 34.3843589,13.7410623 37.6476239,13.7410623 C40.9250155,13.7410623 43.4875968,14.863643 45.3381929,17.1116178 C47.1887891,19.356779 48.1126745,22.2518554 48.1126745,25.796847 L48.1126745,26.2554451 C48.1126745,29.814504 47.1859637,32.7123939 45.3381929,34.9519282 C43.4875968,37.1914625 40.9391422,38.3112297 37.6871786,38.3112297 C34.3956603,38.3112297 31.8274284,37.1914625 29.9768322,34.9519282 C28.1262361,32.7123939 27.2023507,29.814504 27.2023507,26.2554451 L27.2023507,25.7940335 L27.2023507,25.7940335 Z M33.1807651,26.2554451 C33.1807651,28.4133883 33.5339323,30.1464953 34.2459174,31.4519525 C34.9550771,32.7574097 36.1021642,33.4101382 37.6871786,33.4101382 C39.229813,33.4101382 40.359948,32.7545962 41.0775838,31.4406985 C41.7952195,30.1296144 42.1512121,28.3993209 42.1512121,26.2554451 L42.1512121,25.796847 C42.1512121,23.6979869 41.7895689,21.9845743 41.0662824,20.6566093 C40.342996,19.3314577 39.2015596,18.6646617 37.6447986,18.6646617 C36.0880375,18.6646617 34.9550771,19.3286442 34.2459174,20.6566093 C33.5367576,21.9845743 33.1807651,23.6979869 33.1807651,25.796847 L33.1807651,26.2554451 L33.1807651,26.2554451 Z" id="Shape" fill="#683E97"></path>
            <path d="M49.8756851,25.7940335 C49.8756851,22.2659229 50.7995705,19.37366 52.6501667,17.1200582 C54.5007628,14.8664565 57.0576934,13.7410623 60.3209584,13.7410623 C63.59835,13.7410623 66.1609312,14.863643 68.0115274,17.1116178 C69.8621235,19.356779 70.7860089,22.2518554 70.7860089,25.796847 L70.7860089,26.2554451 C70.7860089,29.814504 69.8621235,32.7123939 68.0115274,34.9519282 C66.1609312,37.1914625 63.6124767,38.3112297 60.3633384,38.3112297 C57.0718201,38.3112297 54.5035882,37.1914625 52.652992,34.9519282 C50.8023959,32.7123939 49.8785105,29.814504 49.8785105,26.2554451 L49.8785105,25.7940335 L49.8756851,25.7940335 Z M55.8540996,26.2554451 C55.8540996,28.4133883 56.2100921,30.1464953 56.9192519,31.4519525 C57.6284116,32.7574097 58.7754987,33.4101382 60.3605131,33.4101382 C61.9031474,33.4101382 63.0332825,32.7545962 63.7509182,31.4406985 C64.468554,30.1296144 64.8273719,28.3993209 64.8273719,26.2554451 L64.8273719,25.796847 C64.8273719,23.6979869 64.4657287,21.9845743 63.7424422,20.6566093 C63.0191558,19.3314577 61.8777194,18.6646617 60.3209584,18.6646617 C58.7641973,18.6646617 57.6312369,19.3286442 56.9220772,20.6566093 C56.2129174,21.9845743 55.8569249,23.6979869 55.8569249,25.796847 L55.8569249,26.2554451 L55.8540996,26.2554451 Z" id="Shape" fill="#683E97"></path>
            <path d="M86.9667175,34.9603687 C86.2716845,36.0548145 85.4466859,36.8847926 84.5001978,37.4559301 C83.5508843,38.0242542 82.46878,38.3084162 81.2538848,38.3084162 C78.5217834,38.3084162 76.4027801,37.2421053 74.8940498,35.1151104 C73.3853195,32.985302 72.6309544,30.1718166 72.6309544,26.6690274 L72.6309544,26.2104293 C72.6309544,22.4769343 73.3881449,19.4636915 74.9053512,17.1735144 C76.4225575,14.8833374 78.5500367,13.7382488 81.2962649,13.7382488 C82.4009719,13.7382488 83.3983161,13.9970895 84.2854721,14.5147708 C85.1726281,15.0324521 85.9524213,15.7667718 86.619201,16.7149163 L86.619201,8.22663109 L83.4237441,7.57108901 L83.4237441,3.7194276 L86.619201,3.7194276 L92.6004408,3.7194276 L92.6004408,33.362309 L95.4681584,34.0206646 L95.4681584,37.8498181 L87.4187715,37.8498181 L86.9667175,34.9603687 Z M78.6093688,26.6690274 C78.6093688,28.7397526 78.9342826,30.3715741 79.581285,31.5588649 C80.2282873,32.7489692 81.2906142,33.3426146 82.7654405,33.3426146 C83.6384698,33.3426146 84.3984856,33.1541111 85.0398373,32.7742906 C85.6811889,32.39447 86.2067017,31.8486539 86.6163757,31.1340286 L86.6163757,21.0926995 C86.2067017,20.3330585 85.6840142,19.7478535 85.0483133,19.3314577 C84.4126123,18.9150618 83.6667232,18.7068639 82.8049952,18.7068639 C81.3442956,18.7068639 80.2791434,19.3989813 79.6095383,20.7860296 C78.9399333,22.1730779 78.6065435,23.9793354 78.6065435,26.2104293 L78.6065435,26.6690274 L78.6093688,26.6690274 Z" id="Shape" fill="#683E97"></path>
            <polygon id="Path" fill="#683E97" points="97.4713228 37.8216832 107.845963 37.8216832 107.845963 35.6356051 104.783297 34.9406743 104.783297 3.71098715 97.146409 3.71098715 97.146409 5.90269221 100.533989 6.59762309 100.533989 34.9406743 97.4713228 35.6356051"></polygon>
            <path d="M118.989094,37.8216832 L129.363734,37.8216832 L129.363734,35.6356051 L126.301068,34.9406743 L126.301068,17.4745574 L130.971351,17.4745574 L130.971351,14.8017463 L126.301068,14.8017463 L126.301068,10.9754063 C126.301068,9.59398496 126.654235,8.48828523 127.352094,7.69206888 C128.086681,6.85365025 129.137707,6.42881397 130.476917,6.42881397 C130.931796,6.42881397 131.344296,6.45413534 131.703114,6.4991511 L132.028027,3.4887218 C131.728542,3.42963861 131.443182,3.37899588 131.174775,3.33960708 C130.671865,3.26364298 130.171781,3.22425418 129.694298,3.22425418 C127.210827,3.22425418 125.357405,3.87135581 124.029497,5.20213437 C122.71854,6.51603202 122.05176,8.45733689 122.05176,10.9754063 L122.05176,14.8017463 L118.553992,14.8017463 L118.553992,17.4745574 L122.05176,17.4745574 L122.05176,34.9406743 L118.989094,35.6356051 L118.989094,37.8216832 Z" id="Path" fill="#683E97"></path>
            <path d="M140.96457,14.3375212 C138.07425,14.3375212 135.836582,15.3841378 134.124428,17.5392675 C132.364243,19.7534805 131.471436,22.6344894 131.471436,26.1035169 L131.471436,27.031967 C131.471436,30.3293718 132.409448,33.0753335 134.254393,35.188261 C136.090863,37.2899345 138.489575,38.3112297 141.58897,38.3112297 C143.354806,38.3112297 144.970899,38.052389 146.392044,37.5375212 C147.508052,37.1351928 148.465842,36.6569003 149.245635,36.1138976 L148.279369,33.7590104 C147.508052,34.1585253 146.773464,34.4708222 146.086907,34.695901 C145.058484,35.0307058 143.772956,35.1995149 142.264226,35.1995149 C140.374075,35.1995149 138.845567,34.5383459 137.723908,33.2357022 C136.658756,32.0005821 136.051308,30.4222168 135.921343,28.5456221 L135.907216,28.3514916 L136.23778,27.2936211 L149.994349,27.2936211 L149.994349,24.6461315 C149.994349,21.4359447 149.194779,18.8784865 147.61824,17.0384671 C146.061479,15.2237691 143.905747,14.3403347 141.029553,14.3403347 L140.96457,14.3375212 Z M145.875007,24.8937182 L136.435554,24.8937182 L135.912867,23.9568276 L135.946771,23.6304633 C136.124767,21.8945428 136.610725,20.4540383 137.393344,19.3511521 C138.266373,18.121659 139.523648,17.4717439 141.029553,17.4717439 C143.049669,17.4717439 144.157202,18.405821 144.730745,19.1879699 C145.490761,20.226146 145.877832,21.5906864 145.877832,23.2478293 L145.877832,24.8937182 L145.875007,24.8937182 Z" id="Shape" fill="#683E97"></path>
            <path d="M3.8142058,55.4115935 L0.242979036,55.4115935 L0.242979036,54.2439971 L1.21206984,54.0780015 L1.21206984,47.6688819 L0.242979036,47.5028862 L0.242979036,46.3268494 L4.4527321,46.3268494 C5.43312426,46.3268494 6.21009211,46.58569 6.76385828,47.0977444 C7.32327513,47.6154257 7.60863423,48.3019161 7.60863423,49.1375212 C7.60863423,49.9815668 7.32610047,50.6708707 6.76385828,51.1829251 C6.21009211,51.6893524 5.43029892,51.9481931 4.4527321,51.9481931 L2.84511499,51.9481931 L2.84511499,54.0723745 L3.8142058,54.2383701 L3.8142058,55.4115935 Z M2.84228965,50.5808392 L4.44990676,50.5808392 C4.96694355,50.5808392 5.3540148,50.4486054 5.59981918,50.1841378 C5.85409956,49.9112297 5.97558908,49.5736114 5.97558908,49.1515886 C5.97558908,48.7295659 5.85127423,48.3863206 5.59699384,48.1077856 C5.34836413,47.8348775 4.97259423,47.7026437 4.44990676,47.7026437 L2.84228965,47.7026437 L2.84228965,50.5808392 Z" id="Shape" fill="#683E97"></path>
            <path d="M15.5619597,55.4115935 L11.9907329,55.4115935 L11.9907329,54.2439971 L12.9598237,54.0780015 L12.9598237,51.1547902 C12.9598237,50.6877516 12.8637622,50.3445064 12.6772899,50.133495 C12.493643,49.9309241 12.2167599,49.8324521 11.8268633,49.8324521 C11.5443295,49.8324521 11.2956998,49.8971623 11.0640222,50.0293961 C10.8521218,50.1503759 10.6713002,50.3163716 10.527208,50.521756 L10.527208,54.0808149 L11.4962988,54.2468106 L11.4962988,55.414407 L7.92507205,55.414407 L7.92507205,54.2468106 L8.89416285,54.0808149 L8.89416285,47.0555421 L7.92507205,46.8895464 L7.92507205,45.7163231 L10.527208,45.7163231 L10.527208,49.0390492 C10.6741256,48.9124424 10.8323445,48.8027165 11.0046901,48.7126849 C11.3578573,48.5269949 11.7534045,48.4313364 12.1828559,48.4313364 C12.937221,48.4313364 13.5333672,48.6648557 13.9571679,49.1206403 C14.3753179,49.5736114 14.5900435,50.2629154 14.5900435,51.1716711 L14.5900435,54.0836284 L15.5591343,54.2496241 L15.5591343,55.4115935 L15.5619597,55.4115935 Z" id="Path" fill="#683E97"></path>
            <path d="M18.0991128,55.5353869 C17.3701757,55.5353869 16.8051082,55.3496968 16.4123863,54.9839437 C16.016839,54.6153772 15.81624,54.0948824 15.81624,53.4393403 C15.81624,52.7528499 16.1015991,52.2154742 16.6581907,51.8412806 C17.1893541,51.4867815 17.9154659,51.3067184 18.8167486,51.3067184 L19.7943154,51.3067184 L19.7943154,50.7890371 C19.7943154,50.4767402 19.7010793,50.2404075 19.5117817,50.0659714 C19.3168334,49.8859083 19.0427756,49.7986903 18.6754817,49.7986903 C18.4070746,49.7986903 18.1725716,49.8324521 17.9719727,49.8999757 C17.8081031,49.953432 17.6724869,50.0237691 17.565124,50.1109871 L17.4182065,50.8959496 L16.0931231,50.8959496 L16.0931231,49.3119573 L16.1807086,49.2416202 C16.4943211,48.9940335 16.8757417,48.7914625 17.3164943,48.6451613 C17.7544217,48.4988601 18.2375544,48.4228959 18.7461152,48.4228959 C19.5259083,48.4228959 20.1729107,48.6282804 20.6645194,49.0334223 C21.1702548,49.4470046 21.4273606,50.0434635 21.4273606,50.8031045 L21.4273606,53.8894979 C21.4273606,53.971089 21.4273606,54.0498666 21.4301859,54.1258307 C21.4301859,54.1398981 21.4301859,54.1539656 21.4301859,54.168033 L21.9217947,54.2355566 L21.9217947,55.4115935 L19.9694864,55.4115935 L19.932757,55.228717 C19.9016783,55.0796022 19.8762502,54.9445549 19.8592982,54.8207616 C19.6926033,54.9698763 19.5033056,55.1049236 19.2998813,55.2202765 C18.9269368,55.4284744 18.5229135,55.5353869 18.0991128,55.5353869 M18.7771939,52.5559059 C18.3533932,52.5559059 18.0171781,52.6515644 17.7798497,52.8372544 C17.556648,53.014504 17.4464599,53.2198884 17.4464599,53.4646617 C17.4464599,53.6756731 17.5057919,53.8304147 17.6272815,53.9345137 C17.757247,54.0470531 17.974798,54.1005093 18.2686331,54.1005093 C18.6133243,54.1005093 18.9325874,54.0161048 19.2179465,53.8529226 C19.4778776,53.7009944 19.6728259,53.5237448 19.7943154,53.3211739 L19.7943154,52.5559059 L18.7771939,52.5559059 Z" id="Shape" fill="#683E97"></path>
            <path d="M26.0100582,55.4115935 L22.4388314,55.4115935 L22.4388314,54.2439971 L23.4079222,54.0780015 L23.4079222,49.8859083 L22.4388314,49.7199127 L22.4388314,48.5466893 L24.8883992,48.5466893 L24.9533819,49.089692 C25.0720461,48.9602716 25.2020116,48.8449187 25.3404532,48.7464468 C25.7246991,48.4791657 26.1767531,48.3778802 26.7050913,48.4510308 C26.8152794,48.4679117 26.9000396,48.4847926 26.962197,48.504487 L27.1514946,48.5607567 L26.9395943,50.046277 L26.0637396,49.9984477 C25.8151099,49.9984477 25.5975589,50.0575309 25.4280387,50.1756973 C25.2641691,50.2882367 25.1370289,50.4429784 25.0409674,50.6455494 L25.0409674,54.0808149 L26.0100582,54.2468106 L26.0100582,55.4115935 Z" id="Path" fill="#683E97"></path>
            <path d="M38.8229643,55.4115935 L35.2460869,55.4115935 L35.2460869,54.2439971 L36.2151777,54.0780015 L36.2151777,51.3376667 C36.2151777,50.7637157 36.1219416,50.3613873 35.94112,50.1419355 C35.765949,49.9337376 35.5088433,49.8324521 35.1500254,49.8324521 C34.8081596,49.8324521 34.5425778,49.947805 34.3391535,50.1813243 C34.1216025,50.4317245 34.000113,50.7383944 33.9633836,51.1238419 L33.9633836,54.0780015 L34.9324744,54.2439971 L34.9324744,55.4115935 L31.3612477,55.4115935 L31.3612477,54.2439971 L32.3303385,54.0780015 L32.3303385,51.3376667 C32.3303385,50.7946641 32.234277,50.3979626 32.0449794,50.1616299 C31.8641578,49.9393645 31.6042267,49.8296386 31.2510595,49.8296386 C30.9402724,49.8296386 30.685992,49.8915353 30.493869,50.0125152 C30.3130474,50.1278681 30.1746059,50.2826098 30.0700684,50.4879942 L30.0700684,54.075188 L31.0391592,54.2411836 L31.0391592,55.40878 L27.4679324,55.40878 L27.4679324,54.2411836 L28.4370232,54.075188 L28.4370232,49.8830948 L27.4679324,49.7170992 L27.4679324,48.5438758 L29.9316268,48.5438758 L29.9796576,49.0531167 C30.1322258,48.9152559 30.3045714,48.7970895 30.493869,48.701431 C30.8498616,48.5185545 31.2651862,48.4257094 31.7285416,48.4257094 C32.2003729,48.4257094 32.6128722,48.5382488 32.9575634,48.7577007 C33.1977171,48.9124424 33.3983161,49.1206403 33.556535,49.3766675 C33.740182,49.1403347 33.9577329,48.9405772 34.2063627,48.7802086 C34.5764819,48.5438758 35.0087585,48.4228959 35.497542,48.4228959 C36.2236537,48.4228959 36.8056733,48.6761096 37.2322993,49.17691 C37.6476239,49.6664565 37.8566989,50.3951492 37.8566989,51.3489207 L37.8566989,54.075188 L38.8257897,54.2411836 L38.8257897,55.4115935 L38.8229643,55.4115935 Z" id="Path" fill="#683E97"></path>
            <path d="M41.5833192,55.5353869 C40.8543821,55.5353869 40.2893146,55.3496968 39.8965926,54.9839437 C39.5010454,54.6153772 39.3004464,54.0948824 39.3004464,53.4393403 C39.3004464,52.7528499 39.5829802,52.2154742 40.142397,51.8412806 C40.6735605,51.4867815 41.3996723,51.3067184 42.3037803,51.3067184 L43.2813471,51.3067184 L43.2813471,50.7890371 C43.2813471,50.4767402 43.188111,50.2404075 42.9988134,50.0659714 C42.8038651,49.8859083 42.5298073,49.7986903 42.1625134,49.7986903 C41.8969317,49.7986903 41.6596033,49.8324521 41.4590044,49.8999757 C41.2951348,49.953432 41.1595186,50.0237691 41.0521557,50.1109871 L40.9080635,50.8959496 L39.5829802,50.8959496 L39.5829802,49.3119573 L39.6705656,49.2416202 C39.9841781,48.9940335 40.3655987,48.7914625 40.803526,48.6451613 C41.2414534,48.4988601 41.7245861,48.4228959 42.2331469,48.4228959 C43.01294,48.4228959 43.6599424,48.6282804 44.1515511,49.0334223 C44.6572865,49.4470046 44.9143923,50.0434635 44.9143923,50.8031045 L44.9143923,53.8894979 C44.9143923,53.971089 44.9143923,54.0498666 44.9172176,54.1258307 C44.9172176,54.1398981 44.9172176,54.1539656 44.9172176,54.168033 L45.406001,54.2355566 L45.406001,55.4115935 L43.4536927,55.4115935 L43.4169633,55.228717 C43.3858846,55.0796022 43.3604566,54.9445549 43.3435045,54.8207616 C43.1768096,54.9698763 42.9903373,55.1049236 42.7840877,55.2202765 C42.4111431,55.4284744 42.0071199,55.5353869 41.5833192,55.5353869 M42.2614002,52.5559059 C41.8375996,52.5559059 41.5013844,52.6515644 41.2640561,52.8372544 C41.0408544,53.014504 40.9306662,53.2198884 40.9306662,53.4646617 C40.9306662,53.6756731 40.9899983,53.8304147 41.1114878,53.9345137 C41.2414534,54.0470531 41.4590044,54.1005093 41.7528395,54.1005093 C42.0975307,54.1005093 42.4167938,54.0161048 42.7021529,53.8529226 C42.9649093,53.7009944 43.1570323,53.5237448 43.2785218,53.3211739 L43.2785218,52.5559059 L42.2614002,52.5559059 Z" id="Shape" fill="#683E97"></path>
            <path d="M48.8190089,55.5353869 C47.8131887,55.5353869 47.0333955,55.2005821 46.4965813,54.5365996 C45.9710685,53.8894979 45.7054868,53.0707737 45.7054868,52.1001213 L45.7054868,51.8525346 C45.7054868,50.8903226 45.9738939,50.0744118 46.4994067,49.4244967 C47.0390462,48.7605142 47.8188394,48.4228959 48.8190089,48.4228959 C49.3614737,48.4228959 49.8587331,48.515741 50.2966605,48.695804 C50.7374131,48.8786806 51.1075324,49.1318943 51.3985421,49.4526316 L51.4550489,49.5145283 L51.5200316,51.2588892 L50.1666949,51.2588892 L49.8841612,50.144749 C49.773973,50.051904 49.6383568,49.9731264 49.4716619,49.9112297 C49.2823642,49.8380791 49.0619879,49.8015038 48.8161835,49.8015038 C48.2821947,49.8015038 47.9177262,49.9815668 47.6945245,50.3501334 C47.4543708,50.7524618 47.3328813,51.2588892 47.3328813,51.8525346 L47.3328813,52.1001213 C47.3328813,52.7106476 47.4543708,53.2227019 47.6916992,53.6222168 C47.9120755,53.9879699 48.2793694,54.1652195 48.8161835,54.1652195 C49.1523987,54.1652195 49.4405831,54.063934 49.6976889,53.8585496 C49.9378426,53.6644191 50.0565068,53.4337133 50.0565068,53.1551783 L50.0565068,52.927286 L51.505905,52.927286 L51.5793637,53.1523648 L51.5793637,53.1833131 C51.6019664,53.8079069 51.3250833,54.364977 50.7571905,54.840456 C50.2062496,55.2990541 49.5535967,55.5353869 48.8190089,55.5353869" id="Path" fill="#683E97"></path>
            <path d="M53.6503362,58 C53.5486241,58 53.4186585,57.9887461 53.2604396,57.9634247 C53.1050461,57.9409168 52.9863819,57.9184089 52.8987964,57.8987145 L52.7010228,57.8480718 L52.8394643,56.7367451 L52.8564163,56.5257337 L53.071142,56.5257337 C53.0909194,56.5257337 53.1672035,56.5285472 53.2999943,56.5398011 C53.506244,56.5538685 53.5740521,56.556682 53.5966548,56.556682 C53.7718257,56.556682 53.9046166,56.4835314 54.0148048,56.3287897 C54.158897,56.1290323 54.2860372,55.895513 54.3934,55.6310454 L54.6392044,55.0514674 L52.5964853,49.8211982 L51.9438323,49.7170992 L51.9438323,48.5410623 L55.0036729,48.5410623 L55.0036729,49.7170992 L54.3566706,49.8240116 L55.3850935,52.7472229 L55.4189976,52.8794567 L56.4445951,49.8240116 L55.7862915,49.7170992 L55.7862915,48.5410623 L58.8404814,48.5410623 L58.8404814,49.7199127 L58.2019551,49.8183847 L55.7975928,56.2443852 C55.6252472,56.7029833 55.3709668,57.1081252 55.046053,57.4485569 C54.6985365,57.81431 54.2295304,58 53.6503362,58" id="Path" fill="#683E97"></path>
            <polygon id="Path" fill="#683E97" points="74.5211053 55.4115935 70.9498785 55.4115935 70.9498785 54.2411836 71.9189693 54.075188 71.9189693 51.6021344 68.1782223 51.6021344 68.1782223 54.075188 69.1473131 54.2411836 69.1473131 55.4115935 65.5760863 55.4115935 65.5760863 54.2411836 66.5480025 54.075188 66.5480025 47.6688819 65.5760863 47.5028862 65.5760863 46.3268494 69.1473131 46.3268494 69.1473131 47.5028862 68.1782223 47.6688819 68.1782223 50.2235266 71.9189693 50.2235266 71.9189693 47.6688819 70.9498785 47.5028862 70.9498785 46.3268494 74.5211053 46.3268494 74.5211053 47.5028862 73.5520145 47.6688819 73.5520145 54.075188 74.5211053 54.2411836"></polygon>
            <path d="M77.9849692,55.5353869 C77.0243544,55.5353869 76.2473866,55.2090226 75.673843,54.5675479 C75.1087755,53.9317002 74.8205911,53.1045355 74.8205911,52.1029348 L74.8205911,51.8440941 C74.8205911,50.8790686 75.1144262,50.0603444 75.6964457,49.4132428 C76.284116,48.7577007 76.9932757,48.4285229 77.8041476,48.4285229 C78.7336837,48.4285229 79.4541448,48.7183119 79.9457535,49.2922629 C80.4260609,49.85496 80.66904,50.6061606 80.66904,51.5261703 L80.66904,52.4855688 L76.4875403,52.4855688 C76.5242697,52.9582343 76.6627112,53.3549357 76.9000396,53.6672326 C77.1571453,54.0076643 77.5131378,54.1708465 77.9821439,54.1708465 C78.3494378,54.1708465 78.6715262,54.1173902 78.945584,54.0161048 C79.2168164,53.9148193 79.4541448,53.774145 79.6490931,53.5968955 L79.8553427,53.4083919 L80.5532011,54.5619209 L80.4204102,54.6885278 C80.1689552,54.927674 79.8383907,55.1330585 79.4343674,55.2962406 C79.0331695,55.4509823 78.5443861,55.5353869 77.9849692,55.5353869 M76.5581737,51.106961 L79.0416455,51.106961 C79.0303441,50.7327674 78.9258066,50.428911 78.7252077,50.1756973 C78.5246087,49.9224836 78.2251229,49.8015038 77.8097983,49.8015038 C77.4848844,49.8015038 77.213652,49.9365511 76.9819743,50.2150861 C76.7728994,50.4570458 76.6316325,50.7552753 76.5581737,51.106961" id="Shape" fill="#683E97"></path>
            <path d="M83.7373566,55.5353869 C83.0084195,55.5353869 82.443352,55.3496968 82.0506301,54.9839437 C81.6550828,54.6153772 81.4544838,54.0948824 81.4544838,53.4393403 C81.4544838,52.7528499 81.7370176,52.2154742 82.2964344,51.8412806 C82.8275979,51.4867815 83.5537097,51.3067184 84.4549924,51.3067184 L85.4325592,51.3067184 L85.4325592,50.7890371 C85.4325592,50.4767402 85.339323,50.2404075 85.1500254,50.0659714 C84.9550771,49.8859083 84.6810194,49.7986903 84.3137255,49.7986903 C84.0481438,49.7986903 83.8108154,49.8324521 83.6102164,49.8999757 C83.4463468,49.953432 83.3107306,50.0237691 83.2033678,50.1109871 L83.0592756,50.8959496 L81.7341922,50.8959496 L81.7341922,49.3119573 L81.8217777,49.2416202 C82.1353902,48.9940335 82.5168108,48.7914625 82.9575634,48.6451613 C83.3954908,48.4988601 83.8786235,48.4228959 84.3871843,48.4228959 C85.1669775,48.4228959 85.8139798,48.6282804 86.3055885,49.0334223 C86.811324,49.4470046 87.0684297,50.0434635 87.0684297,50.8031045 L87.0684297,53.8894979 C87.0684297,53.971089 87.0684297,54.0498666 87.071255,54.1258307 C87.071255,54.1398981 87.071255,54.1539656 87.071255,54.168033 L87.5600384,54.2355566 L87.5600384,55.4115935 L85.6077301,55.4115935 L85.5710007,55.228717 C85.539922,55.0796022 85.514494,54.9445549 85.497542,54.8207616 C85.330847,54.9698763 85.1415494,55.1049236 84.9381251,55.2202765 C84.5651805,55.4284744 84.1611573,55.5353869 83.7373566,55.5353869 M84.4154376,52.5559059 C83.991637,52.5559059 83.6554218,52.6515644 83.4180935,52.8372544 C83.1948918,53.014504 83.0847036,53.2198884 83.0847036,53.4646617 C83.0847036,53.6756731 83.1440357,53.8304147 83.2655252,53.9345137 C83.3954908,54.0470531 83.6130418,54.1005093 83.9068769,54.1005093 C84.2515681,54.1005093 84.5708312,54.0161048 84.8561903,53.8529226 C85.1161214,53.7009944 85.3110697,53.5237448 85.4325592,53.3211739 L85.4325592,52.5559059 L84.4154376,52.5559059 Z" id="Shape" fill="#683E97"></path>
            <polygon id="Path" fill="#683E97" points="91.4872577 55.4115935 87.916031 55.4115935 87.916031 54.2411836 88.8851218 54.075188 88.8851218 47.0527286 87.916031 46.8839195 87.916031 45.7106961 90.5181669 45.7106961 90.5181669 54.075188 91.4872577 54.2411836"></polygon>
            <path d="M94.1261231,55.5353869 C93.5893089,55.5353869 93.1513816,55.3665777 92.8264678,55.0374 C92.5015539,54.7082222 92.3376844,54.2017948 92.3376844,53.5293718 L92.3376844,49.8662139 L91.3205628,49.8662139 L91.3205628,48.5438758 L92.3376844,48.5438758 L92.3376844,46.9992724 L93.9707295,46.9992724 L93.9707295,48.5438758 L95.1912754,48.5438758 L95.1912754,49.8662139 L93.9707295,49.8662139 L93.9707295,53.5293718 C93.9707295,53.7572641 94.0131096,53.9260732 94.0893937,53.9992239 C94.2221846,54.1286442 94.4369102,54.1342712 94.7420467,54.0920689 C94.8635362,54.075188 94.9652483,54.0583071 95.0471831,54.0386127 L95.2788608,53.9851564 L95.5161892,55.1696338 L95.3833983,55.2540383 C95.2477821,55.3412564 95.0613098,55.40878 94.8183308,55.4594228 C94.5894784,55.5100655 94.3578008,55.5353869 94.1261231,55.5353869" id="Path" fill="#683E97"></path>
            <path d="M103.624908,55.4115935 L100.053681,55.4115935 L100.053681,54.2439971 L101.022772,54.0780015 L101.022772,51.1547902 C101.022772,50.6877516 100.926711,50.3445064 100.740238,50.133495 C100.556592,49.9309241 100.279708,49.8324521 99.8898118,49.8324521 C99.6072781,49.8324521 99.3586484,49.8971623 99.1269707,50.0293961 C98.9150704,50.1503759 98.7342487,50.3163716 98.5901565,50.521756 L98.5901565,54.0808149 L99.5592473,54.2468106 L99.5592473,55.414407 L95.9880206,55.414407 L95.9880206,54.2468106 L96.9571114,54.0808149 L96.9571114,47.0555421 L95.9880206,46.8895464 L95.9880206,45.7163231 L98.5901565,45.7163231 L98.5901565,49.0390492 C98.7370741,48.9124424 98.895293,48.8027165 99.0676386,48.7126849 C99.4208058,48.5269949 99.8191784,48.4313364 100.245804,48.4313364 C101.00017,48.4313364 101.596316,48.6648557 102.020116,49.1206403 C102.438266,49.5736114 102.652992,50.2629154 102.652992,51.1716711 L102.652992,54.0836284 L103.622083,54.2496241 L103.622083,55.4115935 L103.624908,55.4115935 Z" id="Path" fill="#683E97"></path>
            <path d="M114.584393,55.40878 L110.190993,55.40878 L110.190993,54.2411836 L111.160084,54.075188 L111.160084,47.6660684 L110.190993,47.5000728 L110.190993,46.3268494 L114.217099,46.3268494 C115.169238,46.3268494 115.929254,46.5378608 116.477369,46.9570701 C117.045262,47.3903468 117.330621,48.0402619 117.330621,48.8899345 C117.330621,49.3260247 117.189354,49.7199127 116.915296,50.0603444 C116.762728,50.2516614 116.579081,50.4148436 116.367181,50.5498909 C116.692095,50.7046325 116.966152,50.9268979 117.183703,51.2166869 C117.514268,51.6555906 117.680963,52.1704584 117.680963,52.7472229 C117.680963,53.6053359 117.392778,54.2749454 116.82206,54.7335435 C116.265469,55.1837012 115.513929,55.40878 114.584393,55.40878 M112.790303,54.0414261 L114.584393,54.0414261 C115.05905,54.0414261 115.426343,53.9288867 115.677798,53.7066214 C115.923603,53.4871695 116.045092,53.1776862 116.045092,52.7612903 C116.045092,52.3139462 115.93773,51.965074 115.728655,51.7203008 C115.52523,51.483968 115.208792,51.3686151 114.765214,51.3686151 L112.793129,51.3686151 L112.793129,54.0414261 L112.790303,54.0414261 Z M112.790303,49.9928208 L114.516585,49.9928208 C114.878228,49.9815668 115.160762,49.8802813 115.381138,49.6805239 C115.593038,49.4863934 115.697576,49.2191123 115.697576,48.8646131 C115.697576,48.4707252 115.581737,48.1865632 115.344409,47.9980597 C115.092954,47.8011157 114.711533,47.6998302 114.214274,47.6998302 L112.790303,47.6998302 L112.790303,49.9928208 Z" id="Shape" fill="#683E97"></path>
            <path d="M121.466915,55.5353869 C120.506301,55.5353869 119.729333,55.2090226 119.155789,54.5675479 C118.590722,53.9317002 118.302537,53.1045355 118.302537,52.1029348 L118.302537,51.8440941 C118.302537,50.8790686 118.599198,50.0603444 119.178392,49.4132428 C119.766062,48.7577007 120.475222,48.4285229 121.286094,48.4285229 C122.21563,48.4285229 122.936091,48.7183119 123.4277,49.2922629 C123.908007,49.85496 124.150986,50.6061606 124.150986,51.5261703 L124.150986,52.4855688 L119.969486,52.4855688 C120.006216,52.9582343 120.144657,53.3549357 120.381986,53.6672326 C120.639091,54.0076643 120.995084,54.1708465 121.46409,54.1708465 C121.831384,54.1708465 122.156298,54.1173902 122.42753,54.0161048 C122.698763,53.9148193 122.933266,53.774145 123.131039,53.5968955 L123.337289,53.4083919 L124.032322,54.5619209 L123.899531,54.6885278 C123.648076,54.927674 123.317511,55.1330585 122.913488,55.2962406 C122.51229,55.4509823 122.023507,55.5353869 121.466915,55.5353869 M120.037294,51.106961 L122.520766,51.106961 C122.509465,50.7327674 122.404927,50.428911 122.204328,50.1756973 C122.003729,49.9224836 121.701418,49.8015038 121.288919,49.8015038 C120.964005,49.8015038 120.692773,49.9365511 120.461095,50.2150861 C120.254845,50.4570458 120.113579,50.7552753 120.037294,51.106961" id="Shape" fill="#683E97"></path>
            <path d="M127.219303,55.5353869 C126.490366,55.5353869 125.925298,55.3496968 125.532576,54.9839437 C125.137029,54.6153772 124.93643,54.0948824 124.93643,53.4393403 C124.93643,52.7528499 125.218964,52.2154742 125.778381,51.8412806 C126.309544,51.4867815 127.035656,51.3067184 127.936938,51.3067184 L128.914505,51.3067184 L128.914505,50.7890371 C128.914505,50.4767402 128.821269,50.2404075 128.631972,50.0659714 C128.437023,49.8859083 128.162965,49.7986903 127.792846,49.7986903 C127.527265,49.7986903 127.289936,49.8324521 127.089337,49.8999757 C126.925468,49.953432 126.789851,50.0237691 126.682489,50.1109871 L126.538396,50.8959496 L125.213313,50.8959496 L125.213313,49.3119573 L125.300898,49.2416202 C125.614511,48.9940335 125.995932,48.7914625 126.436684,48.6451613 C126.874612,48.4988601 127.354919,48.4228959 127.866305,48.4228959 C128.646098,48.4228959 129.293101,48.6282804 129.784709,49.0334223 C130.290445,49.4470046 130.54755,50.0434635 130.54755,50.8031045 L130.54755,53.8894979 C130.54755,53.971089 130.54755,54.0498666 130.550376,54.1258307 C130.550376,54.1398981 130.550376,54.1539656 130.553201,54.168033 L131.041985,54.2355566 L131.041985,55.4115935 L129.089676,55.4115935 L129.052947,55.228717 C129.021868,55.0824157 128.99644,54.9445549 128.979488,54.8207616 C128.812793,54.9698763 128.626321,55.1049236 128.420071,55.2202765 C128.044301,55.4284744 127.643103,55.5353869 127.219303,55.5353869 M127.897384,52.5559059 C127.473583,52.5559059 127.137368,52.6515644 126.90004,52.8372544 C126.676838,53.014504 126.56665,53.2198884 126.56665,53.4646617 C126.56665,53.6756731 126.625982,53.8304147 126.747471,53.9345137 C126.877437,54.0470531 127.094988,54.1005093 127.388823,54.1005093 C127.736339,54.1005093 128.055603,54.0161048 128.338136,53.8529226 C128.598067,53.7009944 128.793016,53.5237448 128.914505,53.3211739 L128.914505,52.5559059 L127.897384,52.5559059 Z" id="Shape" fill="#683E97"></path>
            <path d="M134.505848,55.5353869 C133.743007,55.5353869 133.132734,55.2849867 132.697632,54.7869998 C132.268181,54.3002668 132.05063,53.5462527 132.05063,52.5502789 L132.05063,49.8718409 L131.313217,49.7058453 L131.313217,48.5410623 L133.683675,48.5410623 L133.683675,52.5615329 C133.683675,53.3436818 133.822117,53.6841135 133.937956,53.8304147 C134.096174,54.0301722 134.344804,54.1286442 134.703622,54.1286442 C135.073741,54.1286442 135.381703,54.0554936 135.613381,53.9120058 C135.833757,53.774145 136.000452,53.588455 136.119116,53.3408683 L136.119116,49.8774679 L135.257388,49.7114722 L135.257388,48.5410623 L137.752161,48.5410623 L137.752161,54.0836284 L138.489575,54.2496241 L138.489575,55.40878 L136.257558,55.40878 L136.212352,54.8460829 C136.06826,54.9951977 135.904391,55.1218045 135.726394,55.22309 C135.370402,55.4312879 134.960728,55.5353869 134.505848,55.5353869" id="Path" fill="#683E97"></path>
            <path d="M141.396847,55.5353869 C140.857207,55.5353869 140.422105,55.3665777 140.097192,55.0374 C139.772278,54.7082222 139.608408,54.2017948 139.608408,53.5293718 L139.608408,49.8662139 L138.591287,49.8662139 L138.591287,48.5438758 L139.608408,48.5438758 L139.608408,46.9992724 L141.241453,46.9992724 L141.241453,48.5438758 L142.461999,48.5438758 L142.461999,49.8662139 L141.241453,49.8662139 L141.241453,53.5293718 C141.241453,53.7572641 141.283833,53.9260732 141.360118,53.9992239 C141.492908,54.1286442 141.707634,54.1342712 142.012771,54.0920689 C142.13426,54.075188 142.235972,54.0583071 142.317907,54.0386127 L142.549585,53.9851564 L142.786913,55.1696338 L142.654122,55.2540383 C142.518506,55.3412564 142.334859,55.40878 142.089055,55.4594228 C141.857377,55.5100655 141.625699,55.5353869 141.396847,55.5353869" id="Path" fill="#683E97"></path>
            <path d="M144.804204,58 C144.702492,58 144.572526,57.9887461 144.414308,57.9634247 C144.258914,57.9409168 144.14025,57.9184089 144.052664,57.8987145 L143.854891,57.8480718 L143.993332,56.7367451 L144.010284,56.5257337 L144.22501,56.5257337 C144.244787,56.5257337 144.321071,56.5285472 144.453862,56.5398011 C144.660112,56.5538685 144.72792,56.556682 144.750523,56.556682 C144.925694,56.556682 145.058484,56.4835314 145.171498,56.3287897 C145.31559,56.1290323 145.44273,55.895513 145.550093,55.6310454 L145.795898,55.0514674 L143.753179,49.8211982 L143.100526,49.7170992 L143.100526,48.5410623 L146.160366,48.5410623 L146.160366,49.7170992 L145.513364,49.8240116 L146.541787,52.7472229 L146.575691,52.8794567 L147.604114,49.8240116 L146.94581,49.7170992 L146.94581,48.5410623 L150,48.5410623 L150,49.7199127 L149.361474,49.8183847 L146.957111,56.2443852 C146.784766,56.7029833 146.530485,57.1081252 146.205572,57.4485569 C145.852404,57.81431 145.380573,58 144.804204,58" id="Path" fill="#683E97"></path>
            <g id="Group" transform="translate(96.564389, 0.000000)" fill="#64B145">
                <path d="M12.4117082,0 C12.4117082,0 19.305532,8.58394373 17.4690626,12.5200097 C16.4575917,14.6892069 10.970786,12.3624545 9.29818613,12.1570701 C5.92755834,11.7434878 2.88466972,11.9122969 0,12.9786078 C0,12.9786078 8.34887269,13.0208101 13.1152173,15.3897647 C17.8843872,17.7587194 19.1981692,19.5227747 20.1955134,21.5231627 C20.1955134,21.5203493 24.4900266,10.1201067 12.4117082,0" id="Path"></path>
                <g transform="translate(10.755925, 6.208276)" id="Path">
                    <path d="M6.06048429,13.3426336 C6.06048429,13.3426336 6.09438834,16.79478 3.51202975,21.2963566 C3.51202975,21.2963566 -0.734452707,28.9321557 3.8538956,36.9618429 C3.8538956,36.9618429 1.48343733,33.2255344 5.31459515,26.782653 C8.90842462,20.7449134 9.78427928,15.6947073 6.06048429,13.3426336"></path>
                    <path d="M4.1618574,1.41345577 C5.07726679,2.70484553 5.03771207,4.30009171 4.06862126,4.98095516 C3.10235579,5.66181861 1.57667347,5.16664519 0.661264081,3.87525543 C-0.25414531,2.58386566 -0.214590583,0.985805999 0.751674885,0.30494255 C1.72076569,-0.375920899 3.24644801,0.122066004 4.1618574,1.41345577"></path>
                </g>
            </g>
        </g>
    </g>
</svg>